<?xml version="1.0" standalone="no"?>
<!DOCTYPE svg PUBLIC "-//W3C//DTD SVG 20010904//EN"
 "http://www.w3.org/TR/2001/REC-SVG-20010904/DTD/svg10.dtd">
<svg version="1.0" xmlns="http://www.w3.org/2000/svg"
 width="409.000000pt" height="409.000000pt" viewBox="0 0 409.000000 409.000000"
 preserveAspectRatio="xMidYMid meet">
<metadata>
Created by potrace 1.11, written by Peter Selinger 2001-2013
</metadata>
<g transform="translate(0.000000,409.000000) scale(0.100000,-0.100000)"
fill="#000000" stroke="none">
<path d="M571 3070 c-311 -311 -566 -571 -569 -579 -2 -7 39 -55 92 -106 53
-51 96 -98 96 -104 0 -6 6 -10 13 -8 6 1 11 -4 10 -10 -2 -7 3 -13 11 -13 8 0
18 -5 22 -12 4 -7 3 -8 -4 -4 -7 4 -12 5 -12 1 0 -3 12 -10 26 -15 14 -6 22
-15 19 -20 -4 -6 -2 -9 3 -8 11 3 77 -63 74 -74 -1 -5 4 -7 11 -5 6 1 11 -4
10 -10 -2 -7 0 -12 5 -10 4 1 9 -2 11 -8 2 -5 17 -18 33 -28 16 -9 26 -22 23
-27 -3 -6 -1 -10 4 -10 16 0 61 -42 61 -57 0 -7 6 -12 12 -11 7 2 12 -3 10 -9
-1 -7 4 -13 12 -13 8 0 18 -5 22 -12 4 -7 3 -8 -4 -4 -7 4 -12 5 -12 1 0 -3
12 -10 26 -15 15 -6 22 -14 18 -22 -4 -7 -3 -8 4 -4 7 4 19 -6 30 -23 10 -17
22 -28 25 -25 4 4 9 -1 13 -10 6 -17 44 -23 44 -7 0 5 9 13 21 16 11 4 19 9
16 11 -5 5 63 74 101 105 14 10 22 19 18 19 -4 0 -1 6 6 14 7 8 15 12 18 11 3
-2 15 10 25 26 11 16 28 32 38 35 9 3 16 8 14 12 -1 4 17 26 40 49 24 23 43
40 43 37 0 -2 19 17 43 44 23 27 54 57 69 68 15 10 24 22 22 26 -3 4 3 8 12 8
10 0 15 3 12 6 -7 6 61 74 74 74 5 0 8 3 6 8 -2 4 16 26 39 49 24 23 43 39 43
35 0 -4 9 7 20 23 11 17 20 26 20 20 0 -5 9 4 20 20 11 17 20 26 20 21 0 -5
10 4 23 20 31 40 55 64 65 64 5 0 15 11 22 24 7 14 19 27 26 30 14 5 124 -97
124 -116 0 -6 3 -9 6 -6 8 8 84 -66 84 -82 0 -7 3 -11 6 -8 7 7 139 -124 136
-135 -1 -5 1 -6 6 -3 10 6 43 -30 35 -38 -4 -3 -1 -6 5 -6 7 0 85 -74 175
-164 l164 -163 -1 -379 c0 -317 -3 -382 -15 -396 -8 -9 -18 -15 -23 -12 -4 3
-8 0 -8 -5 0 -16 -32 -51 -42 -45 -5 3 -7 2 -6 -3 4 -11 -72 -89 -83 -85 -5 1
-8 -3 -7 -10 2 -7 -4 -12 -12 -13 -8 0 -15 -5 -15 -11 0 -16 -31 -44 -40 -36
-5 4 -5 2 -2 -4 4 -7 0 -18 -9 -25 -14 -11 -18 -10 -30 6 -8 10 -14 16 -14 13
0 -3 -16 10 -35 29 -19 19 -35 37 -35 38 0 7 -94 95 -101 95 -4 0 -11 9 -14
20 -3 11 -11 20 -17 20 -5 0 -18 10 -29 22 -17 22 -18 46 -18 403 l-1 380 105
103 c83 82 103 107 96 121 -10 19 -217 224 -230 229 -10 3 -310 -296 -312
-312 -1 -6 -2 -244 -3 -529 l-1 -519 308 -306 c169 -169 311 -308 316 -310 4
-1 27 18 50 43 22 24 44 46 48 47 4 2 40 38 80 80 40 42 73 74 73 70 0 -4 10
8 21 25 12 18 25 30 30 27 5 -3 9 2 9 11 0 9 5 13 10 10 6 -3 10 -2 10 2 0 5
36 45 80 89 44 45 80 79 80 77 0 -2 6 2 14 9 8 7 12 16 10 19 -2 3 8 12 21 19
14 7 25 17 25 22 0 4 14 21 31 36 l32 29 1 527 1 527 -190 189 -189 189 326
326 c305 305 328 325 347 313 12 -7 21 -18 21 -25 0 -6 5 -15 12 -19 7 -5 8
-3 3 7 -5 8 5 1 21 -16 16 -16 29 -33 27 -36 -1 -3 9 -11 23 -18 14 -6 22 -16
19 -21 -3 -6 1 -10 10 -10 9 0 13 -4 10 -10 -3 -5 -2 -10 3 -10 14 0 82 -67
75 -74 -4 -3 1 -6 11 -6 9 0 15 -4 11 -9 -3 -5 4 -12 15 -16 11 -3 20 -13 20
-21 0 -8 4 -13 9 -9 5 3 13 -4 16 -16 4 -11 9 -18 12 -15 6 6 73 -65 73 -77 0
-5 5 -5 10 -2 6 3 10 -1 10 -10 0 -9 4 -14 10 -10 5 3 16 -7 24 -22 8 -15 15
-25 16 -21 0 12 60 -50 60 -63 0 -7 3 -10 6 -6 8 7 34 -17 34 -32 0 -6 6 -10
13 -9 6 2 11 -3 9 -9 -1 -7 5 -13 13 -13 9 0 20 -11 26 -24 11 -23 5 -31 -81
-118 -51 -51 -99 -92 -107 -90 -18 4 -229 214 -225 224 1 5 -1 7 -6 6 -10 -4
-238 224 -234 234 1 5 -1 7 -5 6 -13 -4 -103 89 -95 97 4 5 2 5 -5 1 -6 -3
-15 -1 -18 5 -4 6 -21 -5 -42 -28 -20 -21 -32 -32 -28 -24 5 9 4 12 -3 7 -7
-4 -12 -13 -12 -20 0 -14 -45 -56 -61 -56 -5 0 -8 -4 -5 -8 3 -4 -14 -26 -37
-48 -23 -21 -35 -30 -27 -19 14 19 14 19 -3 6 -9 -8 -15 -16 -12 -19 3 -3 -1
-12 -8 -20 -9 -12 -9 -16 1 -19 6 -3 12 -11 12 -18 0 -8 9 -17 20 -20 11 -4
19 -9 17 -13 -3 -9 91 -100 98 -94 3 3 5 -2 5 -12 0 -9 3 -15 8 -13 4 2 25
-17 47 -44 22 -26 46 -48 53 -48 6 -1 12 -5 12 -10 0 -12 59 -71 70 -71 5 0
10 -6 12 -13 2 -7 29 -36 60 -64 31 -28 54 -54 51 -57 -4 -3 1 -6 10 -6 10 0
17 -6 17 -14 0 -8 9 -18 21 -21 11 -4 18 -9 15 -12 -3 -3 10 -18 29 -33 19
-15 32 -30 28 -34 -3 -3 2 -6 12 -6 10 0 16 -3 13 -6 -7 -6 39 -54 52 -54 6 0
10 -4 10 -10 0 -9 99 -110 108 -110 2 0 13 -12 25 -26 19 -25 21 -26 34 -8 7
10 13 15 13 12 0 -2 149 143 330 325 182 181 330 337 330 346 0 9 -96 112
-213 229 -117 117 -211 214 -209 217 3 3 -3 5 -13 5 -10 0 -16 3 -12 6 3 3
-16 25 -43 49 -27 24 -48 45 -47 47 1 1 -17 22 -40 44 -24 23 -43 39 -43 36 0
-3 -11 8 -23 26 -13 17 -27 29 -30 25 -4 -3 -7 2 -7 12 0 10 -3 16 -6 12 -3
-3 -26 17 -50 44 -24 27 -44 47 -44 43 0 -3 -15 12 -32 34 -18 23 -36 41 -40
41 -12 1 -56 49 -50 55 3 3 -2 6 -12 6 -9 0 -15 3 -13 8 2 4 -17 25 -42 47
-26 22 -62 59 -81 82 -19 23 -38 42 -42 42 -5 1 -17 10 -28 21 -19 19 -21 17
-244 -206 l-225 -226 -226 225 c-190 191 -227 223 -239 212 -7 -8 -16 -11 -20
-8 -3 4 -6 -1 -6 -11 0 -9 -4 -14 -10 -11 -5 3 -10 1 -10 -5 0 -14 -67 -79
-75 -72 -3 3 -5 0 -5 -6 0 -14 -98 -112 -111 -112 -5 0 -9 -7 -9 -15 0 -8 -7
-15 -16 -15 -8 0 -12 -5 -9 -11 4 -6 -2 -13 -14 -16 -11 -3 -23 -13 -26 -24
-3 -10 -15 -21 -25 -24 -11 -3 -19 -10 -17 -14 1 -4 -20 -26 -46 -49 -27 -23
-46 -42 -43 -42 3 0 -4 -11 -16 -25 -11 -13 -25 -22 -30 -19 -4 3 -8 0 -8 -5
0 -12 -15 -29 -80 -85 -25 -21 -38 -36 -30 -32 8 4 4 -2 -10 -13 -14 -11 -29
-21 -34 -21 -5 0 -7 -2 -4 -5 5 -6 -63 -80 -72 -79 -3 0 -16 -11 -30 -24 -14
-14 -19 -21 -11 -17 8 5 -12 -17 -45 -48 -121 -116 -152 -147 -145 -147 3 0
-6 -8 -22 -18 -15 -10 -26 -20 -25 -23 2 -2 -18 -25 -44 -50 -27 -26 -48 -45
-48 -44 0 1 -56 -55 -124 -124 l-125 -127 -102 103 -101 102 327 328 c253 253
328 324 336 313 5 -8 9 -12 9 -7 0 10 70 -65 70 -76 0 -4 4 -6 8 -3 5 3 15 -4
22 -15 16 -21 40 -26 40 -7 0 6 3 8 7 5 3 -4 15 5 25 20 10 16 18 24 18 19 0
-5 13 7 29 27 15 20 31 34 35 30 3 -3 6 2 6 12 0 10 3 15 6 12 4 -4 20 10 35
30 16 20 29 32 29 27 0 -12 34 38 36 53 1 7 -1 12 -4 10 -4 -2 -15 4 -24 15
-10 10 -15 18 -11 18 4 0 -9 12 -30 27 -20 14 -37 29 -37 33 0 3 -25 32 -56
64 -31 32 -53 52 -48 45 4 -7 -16 11 -44 39 -29 29 -52 57 -52 62 0 6 -6 10
-13 10 -7 0 -18 9 -24 20 -34 53 -18 67 -612 -530z m1489 61 c0 4 37 -32 83
-79 45 -48 89 -92 97 -98 13 -11 -1 -28 -88 -116 l-104 -103 -23 28 c-13 15
-26 27 -28 27 -7 0 -97 92 -97 100 0 3 -11 13 -25 20 -13 7 -22 17 -19 22 3 4
1 8 -4 8 -5 0 36 46 92 103 58 58 104 98 108 92 4 -5 8 -7 8 -4z"/>
</g>
</svg>
